<?xml version="1.0" encoding="utf-8" standalone="no"?>
<!DOCTYPE svg PUBLIC "-//W3C//DTD SVG 1.1//EN"
  "http://www.w3.org/Graphics/SVG/1.1/DTD/svg11.dtd">
<svg xmlns:xlink="http://www.w3.org/1999/xlink" width="672pt" height="480pt" viewBox="0 0 672 480" xmlns="http://www.w3.org/2000/svg" version="1.1">
 <metadata>
  <rdf:RDF xmlns:dc="http://purl.org/dc/elements/1.1/" xmlns:cc="http://creativecommons.org/ns#" xmlns:rdf="http://www.w3.org/1999/02/22-rdf-syntax-ns#">
   <cc:Work>
    <dc:type rdf:resource="http://purl.org/dc/dcmitype/StillImage"/>
    <dc:date>2023-07-18T14:57:45.500543</dc:date>
    <dc:format>image/svg+xml</dc:format>
    <dc:creator>
     <cc:Agent>
      <dc:title>Matplotlib v3.7.1, https://matplotlib.org/</dc:title>
     </cc:Agent>
    </dc:creator>
   </cc:Work>
  </rdf:RDF>
 </metadata>
 <defs>
  <style type="text/css">*{stroke-linejoin: round; stroke-linecap: butt}</style>
 </defs>
 <g id="figure_1">
  <g id="patch_1">
   <path d="M 0 480 
L 672 480 
L 672 0 
L 0 0 
z
" style="fill: #ffffff"/>
  </g>
  <g id="axes_1">
   <g id="patch_2">
    <path d="M 84 417.351724 
L 604.8 417.351724 
L 604.8 399.445768 
L 84 399.445768 
z
" clip-path="url(#pb4455a5981)" style="fill-opacity: 0.05098"/>
   </g>
   <g id="patch_3">
    <path d="M 84 372.586834 
L 604.8 372.586834 
L 604.8 354.680878 
L 84 354.680878 
z
" clip-path="url(#pb4455a5981)" style="fill-opacity: 0.05098"/>
   </g>
   <g id="patch_4">
    <path d="M 84 327.821944 
L 604.8 327.821944 
L 604.8 309.915987 
L 84 309.915987 
z
" clip-path="url(#pb4455a5981)" style="fill-opacity: 0.05098"/>
   </g>
   <g id="patch_5">
    <path d="M 84 283.057053 
L 604.8 283.057053 
L 604.8 265.151097 
L 84 265.151097 
z
" clip-path="url(#pb4455a5981)" style="fill-opacity: 0.05098"/>
   </g>
   <g id="patch_6">
    <path d="M 84 238.292163 
L 604.8 238.292163 
L 604.8 220.386207 
L 84 220.386207 
z
" clip-path="url(#pb4455a5981)" style="fill-opacity: 0.05098"/>
   </g>
   <g id="matplotlib.axis_1"/>
   <g id="matplotlib.axis_2">
    <g id="ytick_1"/>
    <g id="ytick_2"/>
    <g id="ytick_3"/>
    <g id="ytick_4"/>
    <g id="ytick_5"/>
    <g id="ytick_6"/>
    <g id="ytick_7"/>
    <g id="ytick_8"/>
    <g id="ytick_9"/>
   </g>
  </g>
  <g id="axes_2">
   <g id="matplotlib.axis_3">
    <g id="ytick_10">
     <g id="line2d_1"/>
     <g id="text_1">
      <!-- isa:&lt;schema.org/CategoryCodeSet&gt; -->
      <g transform="translate(171.515212 412.197965) scale(0.1 -0.1)">
       <defs>
        <path id="DejaVuSans-69" d="M 603 3500 
L 1178 3500 
L 1178 0 
L 603 0 
L 603 3500 
z
M 603 4863 
L 1178 4863 
L 1178 4134 
L 603 4134 
L 603 4863 
z
" transform="scale(0.015625)"/>
        <path id="DejaVuSans-73" d="M 2834 3397 
L 2834 2853 
Q 2591 2978 2328 3040 
Q 2066 3103 1784 3103 
Q 1356 3103 1142 2972 
Q 928 2841 928 2578 
Q 928 2378 1081 2264 
Q 1234 2150 1697 2047 
L 1894 2003 
Q 2506 1872 2764 1633 
Q 3022 1394 3022 966 
Q 3022 478 2636 193 
Q 2250 -91 1575 -91 
Q 1294 -91 989 -36 
Q 684 19 347 128 
L 347 722 
Q 666 556 975 473 
Q 1284 391 1588 391 
Q 1994 391 2212 530 
Q 2431 669 2431 922 
Q 2431 1156 2273 1281 
Q 2116 1406 1581 1522 
L 1381 1569 
Q 847 1681 609 1914 
Q 372 2147 372 2553 
Q 372 3047 722 3315 
Q 1072 3584 1716 3584 
Q 2034 3584 2315 3537 
Q 2597 3491 2834 3397 
z
" transform="scale(0.015625)"/>
        <path id="DejaVuSans-61" d="M 2194 1759 
Q 1497 1759 1228 1600 
Q 959 1441 959 1056 
Q 959 750 1161 570 
Q 1363 391 1709 391 
Q 2188 391 2477 730 
Q 2766 1069 2766 1631 
L 2766 1759 
L 2194 1759 
z
M 3341 1997 
L 3341 0 
L 2766 0 
L 2766 531 
Q 2569 213 2275 61 
Q 1981 -91 1556 -91 
Q 1019 -91 701 211 
Q 384 513 384 1019 
Q 384 1609 779 1909 
Q 1175 2209 1959 2209 
L 2766 2209 
L 2766 2266 
Q 2766 2663 2505 2880 
Q 2244 3097 1772 3097 
Q 1472 3097 1187 3025 
Q 903 2953 641 2809 
L 641 3341 
Q 956 3463 1253 3523 
Q 1550 3584 1831 3584 
Q 2591 3584 2966 3190 
Q 3341 2797 3341 1997 
z
" transform="scale(0.015625)"/>
        <path id="DejaVuSans-3a" d="M 750 794 
L 1409 794 
L 1409 0 
L 750 0 
L 750 794 
z
M 750 3309 
L 1409 3309 
L 1409 2516 
L 750 2516 
L 750 3309 
z
" transform="scale(0.015625)"/>
        <path id="DejaVuSans-3c" d="M 4684 3150 
L 1459 2003 
L 4684 863 
L 4684 294 
L 678 1747 
L 678 2266 
L 4684 3719 
L 4684 3150 
z
" transform="scale(0.015625)"/>
        <path id="DejaVuSans-63" d="M 3122 3366 
L 3122 2828 
Q 2878 2963 2633 3030 
Q 2388 3097 2138 3097 
Q 1578 3097 1268 2742 
Q 959 2388 959 1747 
Q 959 1106 1268 751 
Q 1578 397 2138 397 
Q 2388 397 2633 464 
Q 2878 531 3122 666 
L 3122 134 
Q 2881 22 2623 -34 
Q 2366 -91 2075 -91 
Q 1284 -91 818 406 
Q 353 903 353 1747 
Q 353 2603 823 3093 
Q 1294 3584 2113 3584 
Q 2378 3584 2631 3529 
Q 2884 3475 3122 3366 
z
" transform="scale(0.015625)"/>
        <path id="DejaVuSans-68" d="M 3513 2113 
L 3513 0 
L 2938 0 
L 2938 2094 
Q 2938 2591 2744 2837 
Q 2550 3084 2163 3084 
Q 1697 3084 1428 2787 
Q 1159 2491 1159 1978 
L 1159 0 
L 581 0 
L 581 4863 
L 1159 4863 
L 1159 2956 
Q 1366 3272 1645 3428 
Q 1925 3584 2291 3584 
Q 2894 3584 3203 3211 
Q 3513 2838 3513 2113 
z
" transform="scale(0.015625)"/>
        <path id="DejaVuSans-65" d="M 3597 1894 
L 3597 1613 
L 953 1613 
Q 991 1019 1311 708 
Q 1631 397 2203 397 
Q 2534 397 2845 478 
Q 3156 559 3463 722 
L 3463 178 
Q 3153 47 2828 -22 
Q 2503 -91 2169 -91 
Q 1331 -91 842 396 
Q 353 884 353 1716 
Q 353 2575 817 3079 
Q 1281 3584 2069 3584 
Q 2775 3584 3186 3129 
Q 3597 2675 3597 1894 
z
M 3022 2063 
Q 3016 2534 2758 2815 
Q 2500 3097 2075 3097 
Q 1594 3097 1305 2825 
Q 1016 2553 972 2059 
L 3022 2063 
z
" transform="scale(0.015625)"/>
        <path id="DejaVuSans-6d" d="M 3328 2828 
Q 3544 3216 3844 3400 
Q 4144 3584 4550 3584 
Q 5097 3584 5394 3201 
Q 5691 2819 5691 2113 
L 5691 0 
L 5113 0 
L 5113 2094 
Q 5113 2597 4934 2840 
Q 4756 3084 4391 3084 
Q 3944 3084 3684 2787 
Q 3425 2491 3425 1978 
L 3425 0 
L 2847 0 
L 2847 2094 
Q 2847 2600 2669 2842 
Q 2491 3084 2119 3084 
Q 1678 3084 1418 2786 
Q 1159 2488 1159 1978 
L 1159 0 
L 581 0 
L 581 3500 
L 1159 3500 
L 1159 2956 
Q 1356 3278 1631 3431 
Q 1906 3584 2284 3584 
Q 2666 3584 2933 3390 
Q 3200 3197 3328 2828 
z
" transform="scale(0.015625)"/>
        <path id="DejaVuSans-2e" d="M 684 794 
L 1344 794 
L 1344 0 
L 684 0 
L 684 794 
z
" transform="scale(0.015625)"/>
        <path id="DejaVuSans-6f" d="M 1959 3097 
Q 1497 3097 1228 2736 
Q 959 2375 959 1747 
Q 959 1119 1226 758 
Q 1494 397 1959 397 
Q 2419 397 2687 759 
Q 2956 1122 2956 1747 
Q 2956 2369 2687 2733 
Q 2419 3097 1959 3097 
z
M 1959 3584 
Q 2709 3584 3137 3096 
Q 3566 2609 3566 1747 
Q 3566 888 3137 398 
Q 2709 -91 1959 -91 
Q 1206 -91 779 398 
Q 353 888 353 1747 
Q 353 2609 779 3096 
Q 1206 3584 1959 3584 
z
" transform="scale(0.015625)"/>
        <path id="DejaVuSans-72" d="M 2631 2963 
Q 2534 3019 2420 3045 
Q 2306 3072 2169 3072 
Q 1681 3072 1420 2755 
Q 1159 2438 1159 1844 
L 1159 0 
L 581 0 
L 581 3500 
L 1159 3500 
L 1159 2956 
Q 1341 3275 1631 3429 
Q 1922 3584 2338 3584 
Q 2397 3584 2469 3576 
Q 2541 3569 2628 3553 
L 2631 2963 
z
" transform="scale(0.015625)"/>
        <path id="DejaVuSans-67" d="M 2906 1791 
Q 2906 2416 2648 2759 
Q 2391 3103 1925 3103 
Q 1463 3103 1205 2759 
Q 947 2416 947 1791 
Q 947 1169 1205 825 
Q 1463 481 1925 481 
Q 2391 481 2648 825 
Q 2906 1169 2906 1791 
z
M 3481 434 
Q 3481 -459 3084 -895 
Q 2688 -1331 1869 -1331 
Q 1566 -1331 1297 -1286 
Q 1028 -1241 775 -1147 
L 775 -588 
Q 1028 -725 1275 -790 
Q 1522 -856 1778 -856 
Q 2344 -856 2625 -561 
Q 2906 -266 2906 331 
L 2906 616 
Q 2728 306 2450 153 
Q 2172 0 1784 0 
Q 1141 0 747 490 
Q 353 981 353 1791 
Q 353 2603 747 3093 
Q 1141 3584 1784 3584 
Q 2172 3584 2450 3431 
Q 2728 3278 2906 2969 
L 2906 3500 
L 3481 3500 
L 3481 434 
z
" transform="scale(0.015625)"/>
        <path id="DejaVuSans-2f" d="M 1625 4666 
L 2156 4666 
L 531 -594 
L 0 -594 
L 1625 4666 
z
" transform="scale(0.015625)"/>
        <path id="DejaVuSans-43" d="M 4122 4306 
L 4122 3641 
Q 3803 3938 3442 4084 
Q 3081 4231 2675 4231 
Q 1875 4231 1450 3742 
Q 1025 3253 1025 2328 
Q 1025 1406 1450 917 
Q 1875 428 2675 428 
Q 3081 428 3442 575 
Q 3803 722 4122 1019 
L 4122 359 
Q 3791 134 3420 21 
Q 3050 -91 2638 -91 
Q 1578 -91 968 557 
Q 359 1206 359 2328 
Q 359 3453 968 4101 
Q 1578 4750 2638 4750 
Q 3056 4750 3426 4639 
Q 3797 4528 4122 4306 
z
" transform="scale(0.015625)"/>
        <path id="DejaVuSans-74" d="M 1172 4494 
L 1172 3500 
L 2356 3500 
L 2356 3053 
L 1172 3053 
L 1172 1153 
Q 1172 725 1289 603 
Q 1406 481 1766 481 
L 2356 481 
L 2356 0 
L 1766 0 
Q 1100 0 847 248 
Q 594 497 594 1153 
L 594 3053 
L 172 3053 
L 172 3500 
L 594 3500 
L 594 4494 
L 1172 4494 
z
" transform="scale(0.015625)"/>
        <path id="DejaVuSans-79" d="M 2059 -325 
Q 1816 -950 1584 -1140 
Q 1353 -1331 966 -1331 
L 506 -1331 
L 506 -850 
L 844 -850 
Q 1081 -850 1212 -737 
Q 1344 -625 1503 -206 
L 1606 56 
L 191 3500 
L 800 3500 
L 1894 763 
L 2988 3500 
L 3597 3500 
L 2059 -325 
z
" transform="scale(0.015625)"/>
        <path id="DejaVuSans-64" d="M 2906 2969 
L 2906 4863 
L 3481 4863 
L 3481 0 
L 2906 0 
L 2906 525 
Q 2725 213 2448 61 
Q 2172 -91 1784 -91 
Q 1150 -91 751 415 
Q 353 922 353 1747 
Q 353 2572 751 3078 
Q 1150 3584 1784 3584 
Q 2172 3584 2448 3432 
Q 2725 3281 2906 2969 
z
M 947 1747 
Q 947 1113 1208 752 
Q 1469 391 1925 391 
Q 2381 391 2643 752 
Q 2906 1113 2906 1747 
Q 2906 2381 2643 2742 
Q 2381 3103 1925 3103 
Q 1469 3103 1208 2742 
Q 947 2381 947 1747 
z
" transform="scale(0.015625)"/>
        <path id="DejaVuSans-53" d="M 3425 4513 
L 3425 3897 
Q 3066 4069 2747 4153 
Q 2428 4238 2131 4238 
Q 1616 4238 1336 4038 
Q 1056 3838 1056 3469 
Q 1056 3159 1242 3001 
Q 1428 2844 1947 2747 
L 2328 2669 
Q 3034 2534 3370 2195 
Q 3706 1856 3706 1288 
Q 3706 609 3251 259 
Q 2797 -91 1919 -91 
Q 1588 -91 1214 -16 
Q 841 59 441 206 
L 441 856 
Q 825 641 1194 531 
Q 1563 422 1919 422 
Q 2459 422 2753 634 
Q 3047 847 3047 1241 
Q 3047 1584 2836 1778 
Q 2625 1972 2144 2069 
L 1759 2144 
Q 1053 2284 737 2584 
Q 422 2884 422 3419 
Q 422 4038 858 4394 
Q 1294 4750 2059 4750 
Q 2388 4750 2728 4690 
Q 3069 4631 3425 4513 
z
" transform="scale(0.015625)"/>
        <path id="DejaVuSans-3e" d="M 678 3150 
L 678 3719 
L 4684 2266 
L 4684 1747 
L 678 294 
L 678 863 
L 3897 2003 
L 678 3150 
z
" transform="scale(0.015625)"/>
       </defs>
       <use xlink:href="#DejaVuSans-69"/>
       <use xlink:href="#DejaVuSans-73" x="27.783203"/>
       <use xlink:href="#DejaVuSans-61" x="79.882812"/>
       <use xlink:href="#DejaVuSans-3a" x="141.162109"/>
       <use xlink:href="#DejaVuSans-3c" x="174.853516"/>
       <use xlink:href="#DejaVuSans-73" x="258.642578"/>
       <use xlink:href="#DejaVuSans-63" x="310.742188"/>
       <use xlink:href="#DejaVuSans-68" x="365.722656"/>
       <use xlink:href="#DejaVuSans-65" x="429.101562"/>
       <use xlink:href="#DejaVuSans-6d" x="490.625"/>
       <use xlink:href="#DejaVuSans-61" x="588.037109"/>
       <use xlink:href="#DejaVuSans-2e" x="649.316406"/>
       <use xlink:href="#DejaVuSans-6f" x="681.103516"/>
       <use xlink:href="#DejaVuSans-72" x="742.285156"/>
       <use xlink:href="#DejaVuSans-67" x="781.648438"/>
       <use xlink:href="#DejaVuSans-2f" x="845.125"/>
       <use xlink:href="#DejaVuSans-43" x="878.816406"/>
       <use xlink:href="#DejaVuSans-61" x="948.640625"/>
       <use xlink:href="#DejaVuSans-74" x="1009.919922"/>
       <use xlink:href="#DejaVuSans-65" x="1049.128906"/>
       <use xlink:href="#DejaVuSans-67" x="1110.652344"/>
       <use xlink:href="#DejaVuSans-6f" x="1174.128906"/>
       <use xlink:href="#DejaVuSans-72" x="1235.310547"/>
       <use xlink:href="#DejaVuSans-79" x="1276.423828"/>
       <use xlink:href="#DejaVuSans-43" x="1335.603516"/>
       <use xlink:href="#DejaVuSans-6f" x="1405.427734"/>
       <use xlink:href="#DejaVuSans-64" x="1466.609375"/>
       <use xlink:href="#DejaVuSans-65" x="1530.085938"/>
       <use xlink:href="#DejaVuSans-53" x="1591.609375"/>
       <use xlink:href="#DejaVuSans-65" x="1655.085938"/>
       <use xlink:href="#DejaVuSans-74" x="1716.609375"/>
       <use xlink:href="#DejaVuSans-3e" x="1755.818359"/>
      </g>
     </g>
    </g>
    <g id="ytick_11">
     <g id="line2d_2"/>
     <g id="text_2">
      <!-- &lt;schema.org/name&gt; -->
      <g transform="translate(248.346462 389.81552) scale(0.1 -0.1)">
       <defs>
        <path id="DejaVuSans-6e" d="M 3513 2113 
L 3513 0 
L 2938 0 
L 2938 2094 
Q 2938 2591 2744 2837 
Q 2550 3084 2163 3084 
Q 1697 3084 1428 2787 
Q 1159 2491 1159 1978 
L 1159 0 
L 581 0 
L 581 3500 
L 1159 3500 
L 1159 2956 
Q 1366 3272 1645 3428 
Q 1925 3584 2291 3584 
Q 2894 3584 3203 3211 
Q 3513 2838 3513 2113 
z
" transform="scale(0.015625)"/>
       </defs>
       <use xlink:href="#DejaVuSans-3c"/>
       <use xlink:href="#DejaVuSans-73" x="83.789062"/>
       <use xlink:href="#DejaVuSans-63" x="135.888672"/>
       <use xlink:href="#DejaVuSans-68" x="190.869141"/>
       <use xlink:href="#DejaVuSans-65" x="254.248047"/>
       <use xlink:href="#DejaVuSans-6d" x="315.771484"/>
       <use xlink:href="#DejaVuSans-61" x="413.183594"/>
       <use xlink:href="#DejaVuSans-2e" x="474.462891"/>
       <use xlink:href="#DejaVuSans-6f" x="506.25"/>
       <use xlink:href="#DejaVuSans-72" x="567.431641"/>
       <use xlink:href="#DejaVuSans-67" x="606.794922"/>
       <use xlink:href="#DejaVuSans-2f" x="670.271484"/>
       <use xlink:href="#DejaVuSans-6e" x="703.962891"/>
       <use xlink:href="#DejaVuSans-61" x="767.341797"/>
       <use xlink:href="#DejaVuSans-6d" x="828.621094"/>
       <use xlink:href="#DejaVuSans-65" x="926.033203"/>
       <use xlink:href="#DejaVuSans-3e" x="987.556641"/>
      </g>
     </g>
    </g>
    <g id="ytick_12">
     <g id="line2d_3"/>
     <g id="text_3">
      <!-- &lt;schema.org/url&gt; -->
      <g transform="translate(263.479275 367.433075) scale(0.1 -0.1)">
       <defs>
        <path id="DejaVuSans-75" d="M 544 1381 
L 544 3500 
L 1119 3500 
L 1119 1403 
Q 1119 906 1312 657 
Q 1506 409 1894 409 
Q 2359 409 2629 706 
Q 2900 1003 2900 1516 
L 2900 3500 
L 3475 3500 
L 3475 0 
L 2900 0 
L 2900 538 
Q 2691 219 2414 64 
Q 2138 -91 1772 -91 
Q 1169 -91 856 284 
Q 544 659 544 1381 
z
M 1991 3584 
L 1991 3584 
z
" transform="scale(0.015625)"/>
        <path id="DejaVuSans-6c" d="M 603 4863 
L 1178 4863 
L 1178 0 
L 603 0 
L 603 4863 
z
" transform="scale(0.015625)"/>
       </defs>
       <use xlink:href="#DejaVuSans-3c"/>
       <use xlink:href="#DejaVuSans-73" x="83.789062"/>
       <use xlink:href="#DejaVuSans-63" x="135.888672"/>
       <use xlink:href="#DejaVuSans-68" x="190.869141"/>
       <use xlink:href="#DejaVuSans-65" x="254.248047"/>
       <use xlink:href="#DejaVuSans-6d" x="315.771484"/>
       <use xlink:href="#DejaVuSans-61" x="413.183594"/>
       <use xlink:href="#DejaVuSans-2e" x="474.462891"/>
       <use xlink:href="#DejaVuSans-6f" x="506.25"/>
       <use xlink:href="#DejaVuSans-72" x="567.431641"/>
       <use xlink:href="#DejaVuSans-67" x="606.794922"/>
       <use xlink:href="#DejaVuSans-2f" x="670.271484"/>
       <use xlink:href="#DejaVuSans-75" x="703.962891"/>
       <use xlink:href="#DejaVuSans-72" x="767.341797"/>
       <use xlink:href="#DejaVuSans-6c" x="808.455078"/>
       <use xlink:href="#DejaVuSans-3e" x="836.238281"/>
      </g>
     </g>
    </g>
    <g id="ytick_13">
     <g id="line2d_4"/>
     <g id="text_4">
      <!-- &lt;schema.org/dateModified&gt; -->
      <g transform="translate(211.4824 345.050629) scale(0.1 -0.1)">
       <defs>
        <path id="DejaVuSans-4d" d="M 628 4666 
L 1569 4666 
L 2759 1491 
L 3956 4666 
L 4897 4666 
L 4897 0 
L 4281 0 
L 4281 4097 
L 3078 897 
L 2444 897 
L 1241 4097 
L 1241 0 
L 628 0 
L 628 4666 
z
" transform="scale(0.015625)"/>
        <path id="DejaVuSans-66" d="M 2375 4863 
L 2375 4384 
L 1825 4384 
Q 1516 4384 1395 4259 
Q 1275 4134 1275 3809 
L 1275 3500 
L 2222 3500 
L 2222 3053 
L 1275 3053 
L 1275 0 
L 697 0 
L 697 3053 
L 147 3053 
L 147 3500 
L 697 3500 
L 697 3744 
Q 697 4328 969 4595 
Q 1241 4863 1831 4863 
L 2375 4863 
z
" transform="scale(0.015625)"/>
       </defs>
       <use xlink:href="#DejaVuSans-3c"/>
       <use xlink:href="#DejaVuSans-73" x="83.789062"/>
       <use xlink:href="#DejaVuSans-63" x="135.888672"/>
       <use xlink:href="#DejaVuSans-68" x="190.869141"/>
       <use xlink:href="#DejaVuSans-65" x="254.248047"/>
       <use xlink:href="#DejaVuSans-6d" x="315.771484"/>
       <use xlink:href="#DejaVuSans-61" x="413.183594"/>
       <use xlink:href="#DejaVuSans-2e" x="474.462891"/>
       <use xlink:href="#DejaVuSans-6f" x="506.25"/>
       <use xlink:href="#DejaVuSans-72" x="567.431641"/>
       <use xlink:href="#DejaVuSans-67" x="606.794922"/>
       <use xlink:href="#DejaVuSans-2f" x="670.271484"/>
       <use xlink:href="#DejaVuSans-64" x="703.962891"/>
       <use xlink:href="#DejaVuSans-61" x="767.439453"/>
       <use xlink:href="#DejaVuSans-74" x="828.71875"/>
       <use xlink:href="#DejaVuSans-65" x="867.927734"/>
       <use xlink:href="#DejaVuSans-4d" x="929.451172"/>
       <use xlink:href="#DejaVuSans-6f" x="1015.730469"/>
       <use xlink:href="#DejaVuSans-64" x="1076.912109"/>
       <use xlink:href="#DejaVuSans-69" x="1140.388672"/>
       <use xlink:href="#DejaVuSans-66" x="1168.171875"/>
       <use xlink:href="#DejaVuSans-69" x="1203.376953"/>
       <use xlink:href="#DejaVuSans-65" x="1231.160156"/>
       <use xlink:href="#DejaVuSans-64" x="1292.683594"/>
       <use xlink:href="#DejaVuSans-3e" x="1356.160156"/>
      </g>
     </g>
    </g>
    <g id="ytick_14">
     <g id="line2d_5"/>
     <g id="text_5">
      <!-- &lt;schema.org/hasCategoryCode&gt; -->
      <g transform="translate(187.746462 322.668184) scale(0.1 -0.1)">
       <use xlink:href="#DejaVuSans-3c"/>
       <use xlink:href="#DejaVuSans-73" x="83.789062"/>
       <use xlink:href="#DejaVuSans-63" x="135.888672"/>
       <use xlink:href="#DejaVuSans-68" x="190.869141"/>
       <use xlink:href="#DejaVuSans-65" x="254.248047"/>
       <use xlink:href="#DejaVuSans-6d" x="315.771484"/>
       <use xlink:href="#DejaVuSans-61" x="413.183594"/>
       <use xlink:href="#DejaVuSans-2e" x="474.462891"/>
       <use xlink:href="#DejaVuSans-6f" x="506.25"/>
       <use xlink:href="#DejaVuSans-72" x="567.431641"/>
       <use xlink:href="#DejaVuSans-67" x="606.794922"/>
       <use xlink:href="#DejaVuSans-2f" x="670.271484"/>
       <use xlink:href="#DejaVuSans-68" x="703.962891"/>
       <use xlink:href="#DejaVuSans-61" x="767.341797"/>
       <use xlink:href="#DejaVuSans-73" x="828.621094"/>
       <use xlink:href="#DejaVuSans-43" x="880.720703"/>
       <use xlink:href="#DejaVuSans-61" x="950.544922"/>
       <use xlink:href="#DejaVuSans-74" x="1011.824219"/>
       <use xlink:href="#DejaVuSans-65" x="1051.033203"/>
       <use xlink:href="#DejaVuSans-67" x="1112.556641"/>
       <use xlink:href="#DejaVuSans-6f" x="1176.033203"/>
       <use xlink:href="#DejaVuSans-72" x="1237.214844"/>
       <use xlink:href="#DejaVuSans-79" x="1278.328125"/>
       <use xlink:href="#DejaVuSans-43" x="1337.507812"/>
       <use xlink:href="#DejaVuSans-6f" x="1407.332031"/>
       <use xlink:href="#DejaVuSans-64" x="1468.513672"/>
       <use xlink:href="#DejaVuSans-65" x="1531.990234"/>
       <use xlink:href="#DejaVuSans-3e" x="1593.513672"/>
      </g>
     </g>
    </g>
    <g id="ytick_15">
     <g id="line2d_6"/>
     <g id="text_6">
      <!-- &lt;schema.org/image&gt; -->
      <g transform="translate(245.5574 300.285739) scale(0.1 -0.1)">
       <use xlink:href="#DejaVuSans-3c"/>
       <use xlink:href="#DejaVuSans-73" x="83.789062"/>
       <use xlink:href="#DejaVuSans-63" x="135.888672"/>
       <use xlink:href="#DejaVuSans-68" x="190.869141"/>
       <use xlink:href="#DejaVuSans-65" x="254.248047"/>
       <use xlink:href="#DejaVuSans-6d" x="315.771484"/>
       <use xlink:href="#DejaVuSans-61" x="413.183594"/>
       <use xlink:href="#DejaVuSans-2e" x="474.462891"/>
       <use xlink:href="#DejaVuSans-6f" x="506.25"/>
       <use xlink:href="#DejaVuSans-72" x="567.431641"/>
       <use xlink:href="#DejaVuSans-67" x="606.794922"/>
       <use xlink:href="#DejaVuSans-2f" x="670.271484"/>
       <use xlink:href="#DejaVuSans-69" x="703.962891"/>
       <use xlink:href="#DejaVuSans-6d" x="731.746094"/>
       <use xlink:href="#DejaVuSans-61" x="829.158203"/>
       <use xlink:href="#DejaVuSans-67" x="890.4375"/>
       <use xlink:href="#DejaVuSans-65" x="953.914062"/>
       <use xlink:href="#DejaVuSans-3e" x="1015.4375"/>
      </g>
     </g>
    </g>
    <g id="ytick_16">
     <g id="line2d_7"/>
     <g id="text_7">
      <!-- &lt;schema.org/name&gt; "کاغذ دیواری سه بعدی &gt; -->
      <g transform="translate(119.67615 277.903294) scale(0.1 -0.1)">
       <defs>
        <path id="DejaVuSans-20" transform="scale(0.015625)"/>
        <path id="DejaVuSans-22" d="M 1147 4666 
L 1147 2931 
L 616 2931 
L 616 4666 
L 1147 4666 
z
M 2328 4666 
L 2328 2931 
L 1797 2931 
L 1797 4666 
L 2328 4666 
z
" transform="scale(0.015625)"/>
        <path id="DejaVuSans-6a9" d="M 2406 275 
Q 2981 275 3588 525 
Q 4078 728 4191 900 
Q 4241 981 4241 1125 
Q 4241 1341 4072 1547 
L 3103 2734 
Q 2947 2925 2947 3178 
Q 2947 3288 2978 3391 
Q 3088 3763 3400 3894 
L 5728 4863 
L 5728 4281 
L 3869 3500 
Q 3647 3406 3581 3281 
Q 3563 3247 3563 3169 
Q 3563 3069 3659 2953 
L 4519 1922 
Q 4838 1538 4838 1153 
Q 4838 800 4644 484 
Q 4478 216 3650 -50 
Q 2941 -278 2438 -278 
Q 1838 -278 1438 -159 
Q 406 147 406 981 
Q 406 1413 603 1700 
L 1178 1700 
Q 975 1406 975 981 
Q 975 588 1609 381 
Q 1934 275 2406 275 
z
" transform="scale(0.015625)"/>
        <path id="DejaVuSans-627" d="M 603 4863 
L 1178 4863 
L 1178 0 
L 603 0 
L 603 4863 
z
" transform="scale(0.015625)"/>
        <path id="DejaVuSans-63a" d="M 1059 -553 
Q 1431 -1047 2491 -1047 
Q 3094 -1047 3756 -678 
L 3756 -1253 
Q 3288 -1563 2506 -1563 
Q 1191 -1563 672 -975 
Q 366 -628 366 0 
Q 366 553 638 869 
Q 991 1278 1231 1356 
Q 1072 1369 925 1463 
Q 650 1638 650 2044 
Q 650 2694 1288 3091 
Q 1675 3331 2463 3331 
L 2463 2803 
Q 1853 2803 1491 2600 
Q 1200 2438 1200 2113 
Q 1200 1878 1350 1800 
Q 1491 1725 1634 1725 
Q 1759 1725 1888 1781 
Q 2381 1997 3175 2088 
L 3175 1513 
Q 2322 1431 1584 966 
Q 931 556 931 -22 
Q 931 -388 1059 -553 
z
M 1168 4245 
L 1637 4245 
L 1637 3776 
L 1168 3776 
L 1168 4245 
z
" transform="scale(0.015625)"/>
        <path id="DejaVuSans-630" d="M 1222 472 
Q 1759 625 1869 975 
Q 1894 1059 1894 1191 
Q 1894 1434 1706 1797 
Q 1500 2200 959 2656 
L 1669 2656 
Q 2022 2372 2228 1984 
Q 2484 1509 2484 1181 
Q 2484 872 2384 638 
Q 2134 31 1316 -97 
Q 1172 -119 1031 -119 
Q 713 -119 391 0 
L 391 575 
Q 750 444 1013 444 
Q 1116 444 1222 472 
z
M 1016 3733 
L 1485 3733 
L 1485 3264 
L 1016 3264 
L 1016 3733 
z
" transform="scale(0.015625)"/>
        <path id="DejaVuSans-62f" d="M 1222 472 
Q 1759 625 1869 975 
Q 1894 1059 1894 1191 
Q 1894 1434 1706 1797 
Q 1500 2200 959 2656 
L 1669 2656 
Q 2022 2372 2228 1984 
Q 2484 1509 2484 1181 
Q 2484 872 2384 638 
Q 2134 31 1316 -97 
Q 1172 -119 1031 -119 
Q 713 -119 391 0 
L 391 575 
Q 750 444 1013 444 
Q 1116 444 1222 472 
z
" transform="scale(0.015625)"/>
        <path id="DejaVuSans-6cc" d="M 4269 38 
Q 3950 -494 2878 -722 
Q 2325 -841 1950 -841 
Q 1547 -841 1322 -759 
Q 406 -434 406 381 
Q 406 747 603 1100 
L 1178 1100 
Q 972 691 975 381 
Q 981 -78 1494 -219 
Q 1797 -300 1988 -281 
Q 2381 -247 2784 -172 
Q 3338 -69 3600 181 
Q 3784 356 3784 522 
Q 3784 753 3391 844 
Q 3184 891 2828 1034 
Q 2619 1119 2438 1278 
Q 2238 1456 2234 1816 
Q 2234 2284 2828 2516 
Q 3125 2631 3450 2631 
Q 3775 2631 4075 2500 
Q 4516 2309 4600 1769 
L 4025 1769 
Q 3984 1959 3778 2063 
Q 3653 2125 3438 2131 
Q 3194 2138 3000 2016 
Q 2813 1897 2813 1791 
Q 2813 1619 3203 1488 
Q 3978 1228 4156 1028 
Q 4397 763 4403 484 
Q 4406 272 4269 38 
z
" transform="scale(0.015625)"/>
        <path id="DejaVuSans-648" d="M 1544 1413 
Q 1347 1413 1209 1234 
Q 1134 1131 1134 1019 
Q 1134 859 1294 713 
Q 1441 575 2041 575 
Q 2041 1150 1772 1334 
Q 1656 1413 1544 1413 
z
M 2600 575 
Q 2600 -388 2063 -888 
Q 1766 -1163 1475 -1294 
Q 875 -1563 -266 -1563 
L -266 -988 
Q 856 -988 1275 -750 
Q 1800 -453 1994 9 
Q 1625 9 1484 41 
Q 1016 144 891 250 
Q 528 556 528 984 
Q 528 1425 806 1697 
Q 1131 2019 1559 2019 
Q 1838 2019 2063 1859 
Q 2469 1578 2547 1131 
Q 2600 813 2600 575 
z
" transform="scale(0.015625)"/>
        <path id="DejaVuSans-631" d="M 2109 494 
Q 2141 675 2141 900 
Q 2141 1294 1975 1719 
L 2550 1719 
Q 2706 1350 2706 938 
Q 2706 681 2681 488 
Q 2538 -606 1628 -1091 
Q 741 -1563 -266 -1563 
L -266 -988 
Q 684 -988 1319 -588 
Q 2000 -156 2109 494 
z
" transform="scale(0.015625)"/>
        <path id="DejaVuSans-633" d="M 3988 138 
Q 3913 -422 3650 -756 
Q 3234 -1288 2631 -1481 
Q 2381 -1563 2006 -1563 
Q 1606 -1559 1266 -1472 
Q 406 -1250 406 -225 
Q 406 544 734 1106 
L 1309 1106 
Q 972 463 975 -225 
Q 978 -784 1438 -903 
Q 1734 -978 1988 -978 
Q 2294 -978 2591 -863 
Q 2969 -713 3263 -219 
Q 3463 119 3459 563 
Q 3456 953 3406 1144 
L 3206 1875 
L 3781 1875 
L 3894 1388 
Q 3944 1156 4031 969 
Q 4216 566 4575 566 
Q 4831 566 4969 947 
Q 5084 1269 5084 1875 
L 5659 1875 
Q 5659 1234 5719 1078 
Q 5919 550 6263 550 
Q 6706 550 6706 1425 
L 6706 2344 
L 7281 2344 
L 7281 1275 
Q 7281 653 6994 300 
Q 6759 13 6441 -63 
Q 6325 -91 6225 -91 
Q 5997 -91 5847 -13 
Q 5416 206 5363 591 
Q 5209 94 4913 0 
Q 4756 -47 4538 -56 
Q 4125 -75 3988 138 
z
" transform="scale(0.015625)"/>
        <path id="DejaVuSans-647" d="M 1384 1731 
Q 1178 1731 1075 1459 
Q 994 1244 997 859 
Q 1000 603 1172 466 
Q 1350 328 1528 328 
Q 1813 328 2103 506 
Q 2338 650 2338 916 
Q 2338 1156 2131 1359 
Q 1747 1734 1384 1731 
z
M 1272 2294 
Q 1891 2294 2459 1794 
Q 2900 1406 2900 944 
Q 2897 319 2438 84 
Q 1922 -181 1509 -181 
Q 1209 -181 956 -72 
Q 434 159 434 906 
Q 434 1472 550 1716 
Q 813 2294 1272 2294 
z
" transform="scale(0.015625)"/>
        <path id="DejaVuSans-628" d="M 5488 2091 
Q 5534 1809 5534 1591 
Q 5534 1169 5297 853 
Q 4897 319 3906 119 
Q 3016 -63 2438 -63 
Q 1841 -63 1438 56 
Q 406 359 406 1197 
Q 406 1628 603 1916 
L 1178 1916 
Q 975 1622 975 1197 
Q 975 806 1609 597 
Q 1934 491 2406 491 
Q 2984 491 3813 669 
Q 4609 838 4819 1191 
Q 4991 1481 4991 1716 
Q 4991 1900 4913 2091 
L 5488 2091 
z
M 2576 -619 
L 3045 -619 
L 3045 -1088 
L 2576 -1088 
L 2576 -619 
z
" transform="scale(0.015625)"/>
        <path id="DejaVuSans-639" d="M 1059 -553 
Q 1431 -1047 2491 -1047 
Q 3094 -1047 3756 -678 
L 3756 -1253 
Q 3288 -1563 2506 -1563 
Q 1191 -1563 672 -975 
Q 366 -628 366 0 
Q 366 553 638 869 
Q 991 1278 1231 1356 
Q 1072 1369 925 1463 
Q 650 1638 650 2044 
Q 650 2694 1288 3091 
Q 1675 3331 2463 3331 
L 2463 2803 
Q 1853 2803 1491 2600 
Q 1200 2438 1200 2113 
Q 1200 1878 1350 1800 
Q 1491 1725 1634 1725 
Q 1759 1725 1888 1781 
Q 2381 1997 3175 2088 
L 3175 1513 
Q 2322 1431 1584 966 
Q 931 556 931 -22 
Q 931 -388 1059 -553 
z
" transform="scale(0.015625)"/>
       </defs>
       <use xlink:href="#DejaVuSans-3c"/>
       <use xlink:href="#DejaVuSans-73" x="83.789062"/>
       <use xlink:href="#DejaVuSans-63" x="135.888672"/>
       <use xlink:href="#DejaVuSans-68" x="190.869141"/>
       <use xlink:href="#DejaVuSans-65" x="254.248047"/>
       <use xlink:href="#DejaVuSans-6d" x="315.771484"/>
       <use xlink:href="#DejaVuSans-61" x="413.183594"/>
       <use xlink:href="#DejaVuSans-2e" x="474.462891"/>
       <use xlink:href="#DejaVuSans-6f" x="506.25"/>
       <use xlink:href="#DejaVuSans-72" x="567.431641"/>
       <use xlink:href="#DejaVuSans-67" x="606.794922"/>
       <use xlink:href="#DejaVuSans-2f" x="670.271484"/>
       <use xlink:href="#DejaVuSans-6e" x="703.962891"/>
       <use xlink:href="#DejaVuSans-61" x="767.341797"/>
       <use xlink:href="#DejaVuSans-6d" x="828.621094"/>
       <use xlink:href="#DejaVuSans-65" x="926.033203"/>
       <use xlink:href="#DejaVuSans-3e" x="987.556641"/>
       <use xlink:href="#DejaVuSans-20" x="1071.345703"/>
       <use xlink:href="#DejaVuSans-22" x="1103.132812"/>
       <use xlink:href="#DejaVuSans-6a9" x="1149.128906"/>
       <use xlink:href="#DejaVuSans-627" x="1238.630859"/>
       <use xlink:href="#DejaVuSans-63a" x="1266.414062"/>
       <use xlink:href="#DejaVuSans-630" x="1326.082031"/>
       <use xlink:href="#DejaVuSans-20" x="1370.613281"/>
       <use xlink:href="#DejaVuSans-62f" x="1402.400391"/>
       <use xlink:href="#DejaVuSans-6cc" x="1446.931641"/>
       <use xlink:href="#DejaVuSans-648" x="1525.203125"/>
       <use xlink:href="#DejaVuSans-627" x="1573.494141"/>
       <use xlink:href="#DejaVuSans-631" x="1601.277344"/>
       <use xlink:href="#DejaVuSans-6cc" x="1649.568359"/>
       <use xlink:href="#DejaVuSans-20" x="1727.839844"/>
       <use xlink:href="#DejaVuSans-633" x="1759.626953"/>
       <use xlink:href="#DejaVuSans-647" x="1881.697266"/>
       <use xlink:href="#DejaVuSans-20" x="1934.089844"/>
       <use xlink:href="#DejaVuSans-628" x="1965.876953"/>
       <use xlink:href="#DejaVuSans-639" x="2060.017578"/>
       <use xlink:href="#DejaVuSans-62f" x="2119.685547"/>
       <use xlink:href="#DejaVuSans-6cc" x="2164.216797"/>
       <use xlink:href="#DejaVuSans-20" x="2242.488281"/>
       <use xlink:href="#DejaVuSans-3e" x="2274.275391"/>
      </g>
     </g>
    </g>
    <g id="ytick_17">
     <g id="line2d_8"/>
     <g id="text_8">
      <!-- &lt;schema.org/name&gt; "آسمان مجازی &gt; -->
      <g transform="translate(166.45115 256.417724) scale(0.1 -0.1)">
       <defs>
        <path id="DejaVuSans-622" d="M -237 5577 
L 263 5961 
Q 585 5702 794 5636 
Q 926 5596 1094 5596 
Q 1276 5596 1404 5646 
Q 1738 5774 2013 6011 
L 2013 5621 
Q 1732 5421 1451 5330 
Q 1241 5261 1076 5261 
Q 969 5261 732 5314 
Q 491 5367 279 5586 
L -237 5186 
L -237 5577 
z
M 603 4863 
L 1178 4863 
L 1178 0 
L 603 0 
L 603 4863 
z
" transform="scale(0.015625)"/>
        <path id="DejaVuSans-645" d="M 1906 922 
Q 2288 791 2525 791 
Q 2663 791 2728 859 
Q 2894 1038 2894 1219 
Q 2894 1294 2875 1356 
Q 2809 1631 2625 1684 
Q 2500 1722 2356 1722 
Q 2172 1722 2088 1638 
Q 1875 1425 1875 1213 
Q 1875 1088 1906 922 
z
M 1531 484 
Q 1375 572 1141 328 
Q 1063 247 1063 0 
L 1063 -1538 
L 438 -1538 
L 438 0 
Q 438 541 813 859 
Q 1016 1031 1297 1031 
Q 1291 1163 1291 1288 
Q 1291 1750 1797 2163 
Q 2038 2359 2325 2359 
Q 2566 2359 2813 2247 
Q 3381 1988 3469 1466 
Q 3494 1325 3494 1150 
Q 3494 694 3188 491 
Q 2813 241 2538 241 
Q 1981 234 1531 484 
z
" transform="scale(0.015625)"/>
        <path id="DejaVuSans-646" d="M 4225 975 
Q 4225 434 3913 -122 
Q 3569 -738 2791 -950 
Q 2488 -1034 2238 -1034 
Q 1825 -1034 1484 -919 
Q 459 -588 459 525 
Q 459 1259 606 1513 
L 1181 1513 
Q 1028 1063 1028 525 
Q 1028 -216 1656 -378 
Q 1947 -453 2238 -453 
Q 2475 -453 2697 -391 
Q 3300 -225 3538 469 
Q 3644 775 3644 1075 
Q 3644 1650 3325 2344 
L 3900 2344 
Q 4225 1856 4225 975 
z
M 1800 2965 
L 2269 2965 
L 2269 2496 
L 1800 2496 
L 1800 2965 
z
" transform="scale(0.015625)"/>
        <path id="DejaVuSans-62c" d="M 491 2522 
Q 1353 2719 1963 2719 
Q 2875 2719 3488 2550 
L 3488 2069 
Q 2569 2069 1897 1547 
Q 1197 1003 1197 188 
Q 1197 -234 1428 -534 
Q 1825 -1047 2859 -1047 
Q 3463 -1047 4125 -678 
L 4125 -1253 
Q 3656 -1563 2875 -1563 
Q 1569 -1563 1041 -956 
Q 631 -488 631 213 
Q 631 1019 1294 1716 
Q 1594 2031 2022 2194 
Q 1706 2194 1209 2134 
Q 816 2088 491 1947 
L 491 2522 
z
M 2424 533 
L 2893 533 
L 2893 64 
L 2424 64 
L 2424 533 
z
" transform="scale(0.015625)"/>
        <path id="DejaVuSans-632" d="M 2109 494 
Q 2141 675 2141 900 
Q 2141 1294 1975 1719 
L 2550 1719 
Q 2706 1350 2706 938 
Q 2706 681 2681 488 
Q 2538 -606 1628 -1091 
Q 741 -1563 -266 -1563 
L -266 -988 
Q 684 -988 1319 -588 
Q 2000 -156 2109 494 
z
M 1952 2965 
L 2421 2965 
L 2421 2496 
L 1952 2496 
L 1952 2965 
z
" transform="scale(0.015625)"/>
       </defs>
       <use xlink:href="#DejaVuSans-3c"/>
       <use xlink:href="#DejaVuSans-73" x="83.789062"/>
       <use xlink:href="#DejaVuSans-63" x="135.888672"/>
       <use xlink:href="#DejaVuSans-68" x="190.869141"/>
       <use xlink:href="#DejaVuSans-65" x="254.248047"/>
       <use xlink:href="#DejaVuSans-6d" x="315.771484"/>
       <use xlink:href="#DejaVuSans-61" x="413.183594"/>
       <use xlink:href="#DejaVuSans-2e" x="474.462891"/>
       <use xlink:href="#DejaVuSans-6f" x="506.25"/>
       <use xlink:href="#DejaVuSans-72" x="567.431641"/>
       <use xlink:href="#DejaVuSans-67" x="606.794922"/>
       <use xlink:href="#DejaVuSans-2f" x="670.271484"/>
       <use xlink:href="#DejaVuSans-6e" x="703.962891"/>
       <use xlink:href="#DejaVuSans-61" x="767.341797"/>
       <use xlink:href="#DejaVuSans-6d" x="828.621094"/>
       <use xlink:href="#DejaVuSans-65" x="926.033203"/>
       <use xlink:href="#DejaVuSans-3e" x="987.556641"/>
       <use xlink:href="#DejaVuSans-20" x="1071.345703"/>
       <use xlink:href="#DejaVuSans-22" x="1103.132812"/>
       <use xlink:href="#DejaVuSans-622" x="1149.128906"/>
       <use xlink:href="#DejaVuSans-633" x="1176.912109"/>
       <use xlink:href="#DejaVuSans-645" x="1298.982422"/>
       <use xlink:href="#DejaVuSans-627" x="1360.896484"/>
       <use xlink:href="#DejaVuSans-646" x="1388.679688"/>
       <use xlink:href="#DejaVuSans-20" x="1462.117188"/>
       <use xlink:href="#DejaVuSans-645" x="1493.904297"/>
       <use xlink:href="#DejaVuSans-62c" x="1555.818359"/>
       <use xlink:href="#DejaVuSans-627" x="1620.369141"/>
       <use xlink:href="#DejaVuSans-632" x="1648.152344"/>
       <use xlink:href="#DejaVuSans-6cc" x="1696.443359"/>
       <use xlink:href="#DejaVuSans-20" x="1774.714844"/>
       <use xlink:href="#DejaVuSans-3e" x="1806.501953"/>
      </g>
     </g>
    </g>
    <g id="ytick_18">
     <g id="line2d_9"/>
     <g id="text_9">
      <!-- &lt;schema.org/name&gt; "تابلو کنواس &gt; -->
      <g transform="translate(156.021462 233.138404) scale(0.1 -0.1)">
       <defs>
        <path id="DejaVuSans-62a" d="M 5488 2091 
Q 5534 1809 5534 1591 
Q 5534 1169 5297 853 
Q 4897 319 3906 119 
Q 3016 -63 2438 -63 
Q 1841 -63 1438 56 
Q 406 359 406 1197 
Q 406 1628 603 1916 
L 1178 1916 
Q 975 1622 975 1197 
Q 975 806 1609 597 
Q 1934 491 2406 491 
Q 2984 491 3813 669 
Q 4609 838 4819 1191 
Q 4991 1481 4991 1716 
Q 4991 1900 4913 2091 
L 5488 2091 
z
M 2965 2517 
L 3434 2517 
L 3434 2048 
L 2965 2048 
L 2965 2517 
z
M 2184 2517 
L 2653 2517 
L 2653 2048 
L 2184 2048 
L 2184 2517 
z
" transform="scale(0.015625)"/>
        <path id="DejaVuSans-644" d="M 3256 228 
Q 3500 622 3500 1331 
L 3500 4863 
L 4075 4863 
L 4075 1331 
Q 4075 341 3769 -109 
Q 3391 -663 2575 -869 
Q 2156 -975 1891 -975 
Q 1594 -975 1366 -906 
Q 453 -619 450 234 
Q 447 666 647 953 
L 1222 953 
Q 1019 594 1019 234 
Q 1019 -172 1538 -366 
Q 1663 -416 1891 -416 
Q 2141 -416 2481 -309 
Q 3025 -144 3256 228 
z
" transform="scale(0.015625)"/>
       </defs>
       <use xlink:href="#DejaVuSans-3c"/>
       <use xlink:href="#DejaVuSans-73" x="83.789062"/>
       <use xlink:href="#DejaVuSans-63" x="135.888672"/>
       <use xlink:href="#DejaVuSans-68" x="190.869141"/>
       <use xlink:href="#DejaVuSans-65" x="254.248047"/>
       <use xlink:href="#DejaVuSans-6d" x="315.771484"/>
       <use xlink:href="#DejaVuSans-61" x="413.183594"/>
       <use xlink:href="#DejaVuSans-2e" x="474.462891"/>
       <use xlink:href="#DejaVuSans-6f" x="506.25"/>
       <use xlink:href="#DejaVuSans-72" x="567.431641"/>
       <use xlink:href="#DejaVuSans-67" x="606.794922"/>
       <use xlink:href="#DejaVuSans-2f" x="670.271484"/>
       <use xlink:href="#DejaVuSans-6e" x="703.962891"/>
       <use xlink:href="#DejaVuSans-61" x="767.341797"/>
       <use xlink:href="#DejaVuSans-6d" x="828.621094"/>
       <use xlink:href="#DejaVuSans-65" x="926.033203"/>
       <use xlink:href="#DejaVuSans-3e" x="987.556641"/>
       <use xlink:href="#DejaVuSans-20" x="1071.345703"/>
       <use xlink:href="#DejaVuSans-22" x="1103.132812"/>
       <use xlink:href="#DejaVuSans-62a" x="1149.128906"/>
       <use xlink:href="#DejaVuSans-627" x="1243.269531"/>
       <use xlink:href="#DejaVuSans-628" x="1271.052734"/>
       <use xlink:href="#DejaVuSans-644" x="1365.193359"/>
       <use xlink:href="#DejaVuSans-648" x="1437.849609"/>
       <use xlink:href="#DejaVuSans-20" x="1486.140625"/>
       <use xlink:href="#DejaVuSans-6a9" x="1517.927734"/>
       <use xlink:href="#DejaVuSans-646" x="1607.429688"/>
       <use xlink:href="#DejaVuSans-648" x="1680.867188"/>
       <use xlink:href="#DejaVuSans-627" x="1729.158203"/>
       <use xlink:href="#DejaVuSans-633" x="1756.941406"/>
       <use xlink:href="#DejaVuSans-20" x="1879.011719"/>
       <use xlink:href="#DejaVuSans-3e" x="1910.798828"/>
      </g>
     </g>
    </g>
   </g>
   <g id="LineCollection_1">
    <path d="M 371.27328 408.398746 
L 371.27328 386.016301 
" clip-path="url(#p7623a5f508)" style="fill: none; stroke: #000000; stroke-width: 2"/>
    <path d="M 395.85504 408.398746 
L 395.85504 363.633856 
" clip-path="url(#p7623a5f508)" style="fill: none; stroke: #000000; stroke-width: 2"/>
    <path d="M 420.4368 408.398746 
L 420.4368 318.868966 
" clip-path="url(#p7623a5f508)" style="fill: none; stroke: #000000; stroke-width: 2"/>
    <path d="M 445.01856 408.398746 
L 445.01856 341.251411 
" clip-path="url(#p7623a5f508)" style="fill: none; stroke: #000000; stroke-width: 2"/>
    <path d="M 469.60032 408.398746 
L 469.60032 296.48652 
" clip-path="url(#p7623a5f508)" style="fill: none; stroke: #000000; stroke-width: 2"/>
    <path d="M 494.18208 408.398746 
L 494.18208 296.48652 
" clip-path="url(#p7623a5f508)" style="fill: none; stroke: #000000; stroke-width: 2"/>
    <path d="M 518.76384 408.398746 
L 518.76384 274.104075 
" clip-path="url(#p7623a5f508)" style="fill: none; stroke: #000000; stroke-width: 2"/>
    <path d="M 543.3456 408.398746 
L 543.3456 251.72163 
" clip-path="url(#p7623a5f508)" style="fill: none; stroke: #000000; stroke-width: 2"/>
    <path d="M 567.92736 408.398746 
L 567.92736 229.339185 
" clip-path="url(#p7623a5f508)" style="fill: none; stroke: #000000; stroke-width: 2"/>
    <path d="M 592.50912 408.398746 
L 592.50912 296.48652 
" clip-path="url(#p7623a5f508)" style="fill: none; stroke: #000000; stroke-width: 2"/>
   </g>
   <g id="PathCollection_1">
    <defs>
     <path id="C0_0_96c1d31d74" d="M 0 5.6 
C 1.485137 5.6 2.909647 5.009949 3.959798 3.959798 
C 5.009949 2.909647 5.6 1.485137 5.6 -0 
C 5.6 -1.485137 5.009949 -2.909647 3.959798 -3.959798 
C 2.909647 -5.009949 1.485137 -5.6 0 -5.6 
C -1.485137 -5.6 -2.909647 -5.009949 -3.959798 -3.959798 
C -5.009949 -2.909647 -5.6 -1.485137 -5.6 0 
C -5.6 1.485137 -5.009949 2.909647 -3.959798 3.959798 
C -2.909647 5.009949 -1.485137 5.6 0 5.6 
z
"/>
    </defs>
    <g clip-path="url(#p7623a5f508)">
     <use xlink:href="#C0_0_96c1d31d74" x="371.27328" y="408.398746" style="stroke: #000000"/>
    </g>
    <g clip-path="url(#p7623a5f508)">
     <use xlink:href="#C0_0_96c1d31d74" x="371.27328" y="386.016301" style="stroke: #000000"/>
    </g>
    <g clip-path="url(#p7623a5f508)">
     <use xlink:href="#C0_0_96c1d31d74" x="371.27328" y="363.633856" style="fill-opacity: 0.180392"/>
    </g>
    <g clip-path="url(#p7623a5f508)">
     <use xlink:href="#C0_0_96c1d31d74" x="371.27328" y="341.251411" style="fill-opacity: 0.180392"/>
    </g>
    <g clip-path="url(#p7623a5f508)">
     <use xlink:href="#C0_0_96c1d31d74" x="371.27328" y="318.868966" style="fill-opacity: 0.180392"/>
    </g>
    <g clip-path="url(#p7623a5f508)">
     <use xlink:href="#C0_0_96c1d31d74" x="371.27328" y="296.48652" style="fill-opacity: 0.180392"/>
    </g>
    <g clip-path="url(#p7623a5f508)">
     <use xlink:href="#C0_0_96c1d31d74" x="371.27328" y="274.104075" style="fill-opacity: 0.180392"/>
    </g>
    <g clip-path="url(#p7623a5f508)">
     <use xlink:href="#C0_0_96c1d31d74" x="371.27328" y="251.72163" style="fill-opacity: 0.180392"/>
    </g>
    <g clip-path="url(#p7623a5f508)">
     <use xlink:href="#C0_0_96c1d31d74" x="371.27328" y="229.339185" style="fill-opacity: 0.180392"/>
    </g>
    <g clip-path="url(#p7623a5f508)">
     <use xlink:href="#C0_0_96c1d31d74" x="395.85504" y="408.398746" style="stroke: #000000"/>
    </g>
    <g clip-path="url(#p7623a5f508)">
     <use xlink:href="#C0_0_96c1d31d74" x="395.85504" y="386.016301" style="stroke: #000000"/>
    </g>
    <g clip-path="url(#p7623a5f508)">
     <use xlink:href="#C0_0_96c1d31d74" x="395.85504" y="363.633856" style="stroke: #000000"/>
    </g>
    <g clip-path="url(#p7623a5f508)">
     <use xlink:href="#C0_0_96c1d31d74" x="395.85504" y="341.251411" style="fill-opacity: 0.180392"/>
    </g>
    <g clip-path="url(#p7623a5f508)">
     <use xlink:href="#C0_0_96c1d31d74" x="395.85504" y="318.868966" style="fill-opacity: 0.180392"/>
    </g>
    <g clip-path="url(#p7623a5f508)">
     <use xlink:href="#C0_0_96c1d31d74" x="395.85504" y="296.48652" style="fill-opacity: 0.180392"/>
    </g>
    <g clip-path="url(#p7623a5f508)">
     <use xlink:href="#C0_0_96c1d31d74" x="395.85504" y="274.104075" style="fill-opacity: 0.180392"/>
    </g>
    <g clip-path="url(#p7623a5f508)">
     <use xlink:href="#C0_0_96c1d31d74" x="395.85504" y="251.72163" style="fill-opacity: 0.180392"/>
    </g>
    <g clip-path="url(#p7623a5f508)">
     <use xlink:href="#C0_0_96c1d31d74" x="395.85504" y="229.339185" style="fill-opacity: 0.180392"/>
    </g>
    <g clip-path="url(#p7623a5f508)">
     <use xlink:href="#C0_0_96c1d31d74" x="420.4368" y="408.398746" style="stroke: #000000"/>
    </g>
    <g clip-path="url(#p7623a5f508)">
     <use xlink:href="#C0_0_96c1d31d74" x="420.4368" y="386.016301" style="stroke: #000000"/>
    </g>
    <g clip-path="url(#p7623a5f508)">
     <use xlink:href="#C0_0_96c1d31d74" x="420.4368" y="363.633856" style="fill-opacity: 0.180392"/>
    </g>
    <g clip-path="url(#p7623a5f508)">
     <use xlink:href="#C0_0_96c1d31d74" x="420.4368" y="341.251411" style="fill-opacity: 0.180392"/>
    </g>
    <g clip-path="url(#p7623a5f508)">
     <use xlink:href="#C0_0_96c1d31d74" x="420.4368" y="318.868966" style="stroke: #000000"/>
    </g>
    <g clip-path="url(#p7623a5f508)">
     <use xlink:href="#C0_0_96c1d31d74" x="420.4368" y="296.48652" style="fill-opacity: 0.180392"/>
    </g>
    <g clip-path="url(#p7623a5f508)">
     <use xlink:href="#C0_0_96c1d31d74" x="420.4368" y="274.104075" style="fill-opacity: 0.180392"/>
    </g>
    <g clip-path="url(#p7623a5f508)">
     <use xlink:href="#C0_0_96c1d31d74" x="420.4368" y="251.72163" style="fill-opacity: 0.180392"/>
    </g>
    <g clip-path="url(#p7623a5f508)">
     <use xlink:href="#C0_0_96c1d31d74" x="420.4368" y="229.339185" style="fill-opacity: 0.180392"/>
    </g>
    <g clip-path="url(#p7623a5f508)">
     <use xlink:href="#C0_0_96c1d31d74" x="445.01856" y="408.398746" style="stroke: #000000"/>
    </g>
    <g clip-path="url(#p7623a5f508)">
     <use xlink:href="#C0_0_96c1d31d74" x="445.01856" y="386.016301" style="stroke: #000000"/>
    </g>
    <g clip-path="url(#p7623a5f508)">
     <use xlink:href="#C0_0_96c1d31d74" x="445.01856" y="363.633856" style="stroke: #000000"/>
    </g>
    <g clip-path="url(#p7623a5f508)">
     <use xlink:href="#C0_0_96c1d31d74" x="445.01856" y="341.251411" style="stroke: #000000"/>
    </g>
    <g clip-path="url(#p7623a5f508)">
     <use xlink:href="#C0_0_96c1d31d74" x="445.01856" y="318.868966" style="fill-opacity: 0.180392"/>
    </g>
    <g clip-path="url(#p7623a5f508)">
     <use xlink:href="#C0_0_96c1d31d74" x="445.01856" y="296.48652" style="fill-opacity: 0.180392"/>
    </g>
    <g clip-path="url(#p7623a5f508)">
     <use xlink:href="#C0_0_96c1d31d74" x="445.01856" y="274.104075" style="fill-opacity: 0.180392"/>
    </g>
    <g clip-path="url(#p7623a5f508)">
     <use xlink:href="#C0_0_96c1d31d74" x="445.01856" y="251.72163" style="fill-opacity: 0.180392"/>
    </g>
    <g clip-path="url(#p7623a5f508)">
     <use xlink:href="#C0_0_96c1d31d74" x="445.01856" y="229.339185" style="fill-opacity: 0.180392"/>
    </g>
    <g clip-path="url(#p7623a5f508)">
     <use xlink:href="#C0_0_96c1d31d74" x="469.60032" y="408.398746" style="stroke: #000000"/>
    </g>
    <g clip-path="url(#p7623a5f508)">
     <use xlink:href="#C0_0_96c1d31d74" x="469.60032" y="386.016301" style="stroke: #000000"/>
    </g>
    <g clip-path="url(#p7623a5f508)">
     <use xlink:href="#C0_0_96c1d31d74" x="469.60032" y="363.633856" style="fill-opacity: 0.180392"/>
    </g>
    <g clip-path="url(#p7623a5f508)">
     <use xlink:href="#C0_0_96c1d31d74" x="469.60032" y="341.251411" style="fill-opacity: 0.180392"/>
    </g>
    <g clip-path="url(#p7623a5f508)">
     <use xlink:href="#C0_0_96c1d31d74" x="469.60032" y="318.868966" style="stroke: #000000"/>
    </g>
    <g clip-path="url(#p7623a5f508)">
     <use xlink:href="#C0_0_96c1d31d74" x="469.60032" y="296.48652" style="stroke: #000000"/>
    </g>
    <g clip-path="url(#p7623a5f508)">
     <use xlink:href="#C0_0_96c1d31d74" x="469.60032" y="274.104075" style="fill-opacity: 0.180392"/>
    </g>
    <g clip-path="url(#p7623a5f508)">
     <use xlink:href="#C0_0_96c1d31d74" x="469.60032" y="251.72163" style="fill-opacity: 0.180392"/>
    </g>
    <g clip-path="url(#p7623a5f508)">
     <use xlink:href="#C0_0_96c1d31d74" x="469.60032" y="229.339185" style="fill-opacity: 0.180392"/>
    </g>
    <g clip-path="url(#p7623a5f508)">
     <use xlink:href="#C0_0_96c1d31d74" x="494.18208" y="408.398746" style="stroke: #000000"/>
    </g>
    <g clip-path="url(#p7623a5f508)">
     <use xlink:href="#C0_0_96c1d31d74" x="494.18208" y="386.016301" style="fill-opacity: 0.180392"/>
    </g>
    <g clip-path="url(#p7623a5f508)">
     <use xlink:href="#C0_0_96c1d31d74" x="494.18208" y="363.633856" style="stroke: #000000"/>
    </g>
    <g clip-path="url(#p7623a5f508)">
     <use xlink:href="#C0_0_96c1d31d74" x="494.18208" y="341.251411" style="fill-opacity: 0.180392"/>
    </g>
    <g clip-path="url(#p7623a5f508)">
     <use xlink:href="#C0_0_96c1d31d74" x="494.18208" y="318.868966" style="stroke: #000000"/>
    </g>
    <g clip-path="url(#p7623a5f508)">
     <use xlink:href="#C0_0_96c1d31d74" x="494.18208" y="296.48652" style="stroke: #000000"/>
    </g>
    <g clip-path="url(#p7623a5f508)">
     <use xlink:href="#C0_0_96c1d31d74" x="494.18208" y="274.104075" style="fill-opacity: 0.180392"/>
    </g>
    <g clip-path="url(#p7623a5f508)">
     <use xlink:href="#C0_0_96c1d31d74" x="494.18208" y="251.72163" style="fill-opacity: 0.180392"/>
    </g>
    <g clip-path="url(#p7623a5f508)">
     <use xlink:href="#C0_0_96c1d31d74" x="494.18208" y="229.339185" style="fill-opacity: 0.180392"/>
    </g>
    <g clip-path="url(#p7623a5f508)">
     <use xlink:href="#C0_0_96c1d31d74" x="518.76384" y="408.398746" style="stroke: #000000"/>
    </g>
    <g clip-path="url(#p7623a5f508)">
     <use xlink:href="#C0_0_96c1d31d74" x="518.76384" y="386.016301" style="fill-opacity: 0.180392"/>
    </g>
    <g clip-path="url(#p7623a5f508)">
     <use xlink:href="#C0_0_96c1d31d74" x="518.76384" y="363.633856" style="fill-opacity: 0.180392"/>
    </g>
    <g clip-path="url(#p7623a5f508)">
     <use xlink:href="#C0_0_96c1d31d74" x="518.76384" y="341.251411" style="fill-opacity: 0.180392"/>
    </g>
    <g clip-path="url(#p7623a5f508)">
     <use xlink:href="#C0_0_96c1d31d74" x="518.76384" y="318.868966" style="stroke: #000000"/>
    </g>
    <g clip-path="url(#p7623a5f508)">
     <use xlink:href="#C0_0_96c1d31d74" x="518.76384" y="296.48652" style="stroke: #000000"/>
    </g>
    <g clip-path="url(#p7623a5f508)">
     <use xlink:href="#C0_0_96c1d31d74" x="518.76384" y="274.104075" style="stroke: #000000"/>
    </g>
    <g clip-path="url(#p7623a5f508)">
     <use xlink:href="#C0_0_96c1d31d74" x="518.76384" y="251.72163" style="fill-opacity: 0.180392"/>
    </g>
    <g clip-path="url(#p7623a5f508)">
     <use xlink:href="#C0_0_96c1d31d74" x="518.76384" y="229.339185" style="fill-opacity: 0.180392"/>
    </g>
    <g clip-path="url(#p7623a5f508)">
     <use xlink:href="#C0_0_96c1d31d74" x="543.3456" y="408.398746" style="stroke: #000000"/>
    </g>
    <g clip-path="url(#p7623a5f508)">
     <use xlink:href="#C0_0_96c1d31d74" x="543.3456" y="386.016301" style="fill-opacity: 0.180392"/>
    </g>
    <g clip-path="url(#p7623a5f508)">
     <use xlink:href="#C0_0_96c1d31d74" x="543.3456" y="363.633856" style="fill-opacity: 0.180392"/>
    </g>
    <g clip-path="url(#p7623a5f508)">
     <use xlink:href="#C0_0_96c1d31d74" x="543.3456" y="341.251411" style="fill-opacity: 0.180392"/>
    </g>
    <g clip-path="url(#p7623a5f508)">
     <use xlink:href="#C0_0_96c1d31d74" x="543.3456" y="318.868966" style="stroke: #000000"/>
    </g>
    <g clip-path="url(#p7623a5f508)">
     <use xlink:href="#C0_0_96c1d31d74" x="543.3456" y="296.48652" style="stroke: #000000"/>
    </g>
    <g clip-path="url(#p7623a5f508)">
     <use xlink:href="#C0_0_96c1d31d74" x="543.3456" y="274.104075" style="fill-opacity: 0.180392"/>
    </g>
    <g clip-path="url(#p7623a5f508)">
     <use xlink:href="#C0_0_96c1d31d74" x="543.3456" y="251.72163" style="stroke: #000000"/>
    </g>
    <g clip-path="url(#p7623a5f508)">
     <use xlink:href="#C0_0_96c1d31d74" x="543.3456" y="229.339185" style="fill-opacity: 0.180392"/>
    </g>
    <g clip-path="url(#p7623a5f508)">
     <use xlink:href="#C0_0_96c1d31d74" x="567.92736" y="408.398746" style="stroke: #000000"/>
    </g>
    <g clip-path="url(#p7623a5f508)">
     <use xlink:href="#C0_0_96c1d31d74" x="567.92736" y="386.016301" style="fill-opacity: 0.180392"/>
    </g>
    <g clip-path="url(#p7623a5f508)">
     <use xlink:href="#C0_0_96c1d31d74" x="567.92736" y="363.633856" style="fill-opacity: 0.180392"/>
    </g>
    <g clip-path="url(#p7623a5f508)">
     <use xlink:href="#C0_0_96c1d31d74" x="567.92736" y="341.251411" style="fill-opacity: 0.180392"/>
    </g>
    <g clip-path="url(#p7623a5f508)">
     <use xlink:href="#C0_0_96c1d31d74" x="567.92736" y="318.868966" style="stroke: #000000"/>
    </g>
    <g clip-path="url(#p7623a5f508)">
     <use xlink:href="#C0_0_96c1d31d74" x="567.92736" y="296.48652" style="stroke: #000000"/>
    </g>
    <g clip-path="url(#p7623a5f508)">
     <use xlink:href="#C0_0_96c1d31d74" x="567.92736" y="274.104075" style="fill-opacity: 0.180392"/>
    </g>
    <g clip-path="url(#p7623a5f508)">
     <use xlink:href="#C0_0_96c1d31d74" x="567.92736" y="251.72163" style="fill-opacity: 0.180392"/>
    </g>
    <g clip-path="url(#p7623a5f508)">
     <use xlink:href="#C0_0_96c1d31d74" x="567.92736" y="229.339185" style="stroke: #000000"/>
    </g>
    <g clip-path="url(#p7623a5f508)">
     <use xlink:href="#C0_0_96c1d31d74" x="592.50912" y="408.398746" style="stroke: #000000"/>
    </g>
    <g clip-path="url(#p7623a5f508)">
     <use xlink:href="#C0_0_96c1d31d74" x="592.50912" y="386.016301" style="stroke: #000000"/>
    </g>
    <g clip-path="url(#p7623a5f508)">
     <use xlink:href="#C0_0_96c1d31d74" x="592.50912" y="363.633856" style="stroke: #000000"/>
    </g>
    <g clip-path="url(#p7623a5f508)">
     <use xlink:href="#C0_0_96c1d31d74" x="592.50912" y="341.251411" style="fill-opacity: 0.180392"/>
    </g>
    <g clip-path="url(#p7623a5f508)">
     <use xlink:href="#C0_0_96c1d31d74" x="592.50912" y="318.868966" style="stroke: #000000"/>
    </g>
    <g clip-path="url(#p7623a5f508)">
     <use xlink:href="#C0_0_96c1d31d74" x="592.50912" y="296.48652" style="stroke: #000000"/>
    </g>
    <g clip-path="url(#p7623a5f508)">
     <use xlink:href="#C0_0_96c1d31d74" x="592.50912" y="274.104075" style="fill-opacity: 0.180392"/>
    </g>
    <g clip-path="url(#p7623a5f508)">
     <use xlink:href="#C0_0_96c1d31d74" x="592.50912" y="251.72163" style="fill-opacity: 0.180392"/>
    </g>
    <g clip-path="url(#p7623a5f508)">
     <use xlink:href="#C0_0_96c1d31d74" x="592.50912" y="229.339185" style="fill-opacity: 0.180392"/>
    </g>
   </g>
  </g>
  <g id="axes_3">
   <g id="patch_7">
    <path d="M 129.8304 413.994357 
L 84 413.994357 
L 84 402.803135 
L 129.8304 402.803135 
z
" clip-path="url(#pc319ce08e8)"/>
   </g>
   <g id="patch_8">
    <path d="M 129.8304 391.611912 
L 84.178569 391.611912 
L 84.178569 380.42069 
L 129.8304 380.42069 
z
" clip-path="url(#pc319ce08e8)"/>
   </g>
   <g id="patch_9">
    <path d="M 129.8304 369.229467 
L 107.778285 369.229467 
L 107.778285 358.038245 
L 129.8304 358.038245 
z
" clip-path="url(#pc319ce08e8)"/>
   </g>
   <g id="patch_10">
    <path d="M 129.8304 346.847022 
L 107.892569 346.847022 
L 107.892569 335.655799 
L 129.8304 335.655799 
z
" clip-path="url(#pc319ce08e8)"/>
   </g>
   <g id="patch_11">
    <path d="M 129.8304 324.464577 
L 129.31612 324.464577 
L 129.31612 313.273354 
L 129.8304 313.273354 
z
" clip-path="url(#pc319ce08e8)"/>
   </g>
   <g id="patch_12">
    <path d="M 129.8304 302.082132 
L 129.570879 302.082132 
L 129.570879 290.890909 
L 129.8304 290.890909 
z
" clip-path="url(#pc319ce08e8)"/>
   </g>
   <g id="patch_13">
    <path d="M 129.8304 279.699687 
L 129.737544 279.699687 
L 129.737544 268.508464 
L 129.8304 268.508464 
z
" clip-path="url(#pc319ce08e8)"/>
   </g>
   <g id="patch_14">
    <path d="M 129.8304 257.317241 
L 129.799448 257.317241 
L 129.799448 246.126019 
L 129.8304 246.126019 
z
" clip-path="url(#pc319ce08e8)"/>
   </g>
   <g id="patch_15">
    <path d="M 129.8304 234.934796 
L 129.808972 234.934796 
L 129.808972 223.743574 
L 129.8304 223.743574 
z
" clip-path="url(#pc319ce08e8)"/>
   </g>
   <g id="matplotlib.axis_4">
    <g id="xtick_1">
     <g id="line2d_10">
      <path d="M 129.8304 427.2 
L 129.8304 210.537931 
" clip-path="url(#pc319ce08e8)" style="fill: none; stroke: #b0b0b0; stroke-width: 0.8; stroke-linecap: square"/>
     </g>
     <g id="line2d_11">
      <defs>
       <path id="mb6f133e8f2" d="M 0 0 
L 0 3.5 
" style="stroke: #000000; stroke-width: 0.8"/>
      </defs>
      <g>
       <use xlink:href="#mb6f133e8f2" x="129.8304" y="427.2" style="stroke: #000000; stroke-width: 0.8"/>
      </g>
     </g>
     <g id="text_10">
      <!-- 0 -->
      <g transform="translate(126.64915 441.798438) scale(0.1 -0.1)">
       <defs>
        <path id="DejaVuSans-30" d="M 2034 4250 
Q 1547 4250 1301 3770 
Q 1056 3291 1056 2328 
Q 1056 1369 1301 889 
Q 1547 409 2034 409 
Q 2525 409 2770 889 
Q 3016 1369 3016 2328 
Q 3016 3291 2770 3770 
Q 2525 4250 2034 4250 
z
M 2034 4750 
Q 2819 4750 3233 4129 
Q 3647 3509 3647 2328 
Q 3647 1150 3233 529 
Q 2819 -91 2034 -91 
Q 1250 -91 836 529 
Q 422 1150 422 2328 
Q 422 3509 836 4129 
Q 1250 4750 2034 4750 
z
" transform="scale(0.015625)"/>
       </defs>
       <use xlink:href="#DejaVuSans-30"/>
      </g>
     </g>
    </g>
    <g id="xtick_2">
     <g id="line2d_12">
      <path d="M 106.021163 427.2 
L 106.021163 210.537931 
" clip-path="url(#pc319ce08e8)" style="fill: none; stroke: #b0b0b0; stroke-width: 0.8; stroke-linecap: square"/>
     </g>
     <g id="line2d_13">
      <g>
       <use xlink:href="#mb6f133e8f2" x="106.021163" y="427.2" style="stroke: #000000; stroke-width: 0.8"/>
      </g>
     </g>
     <g id="text_11">
      <!-- 10000 -->
      <g transform="translate(90.114913 441.798438) scale(0.1 -0.1)">
       <defs>
        <path id="DejaVuSans-31" d="M 794 531 
L 1825 531 
L 1825 4091 
L 703 3866 
L 703 4441 
L 1819 4666 
L 2450 4666 
L 2450 531 
L 3481 531 
L 3481 0 
L 794 0 
L 794 531 
z
" transform="scale(0.015625)"/>
       </defs>
       <use xlink:href="#DejaVuSans-31"/>
       <use xlink:href="#DejaVuSans-30" x="63.623047"/>
       <use xlink:href="#DejaVuSans-30" x="127.246094"/>
       <use xlink:href="#DejaVuSans-30" x="190.869141"/>
       <use xlink:href="#DejaVuSans-30" x="254.492188"/>
      </g>
     </g>
    </g>
   </g>
   <g id="patch_16">
    <path d="M 84 427.2 
L 129.8304 427.2 
" style="fill: none; stroke: #000000; stroke-width: 0.8; stroke-linejoin: miter; stroke-linecap: square"/>
   </g>
  </g>
  <g id="axes_4">
   <g id="patch_17">
    <path d="M 358.9824 197.793103 
L 604.8 197.793103 
L 604.8 57.6 
L 358.9824 57.6 
z
" style="fill: #ffffff"/>
   </g>
   <g id="matplotlib.axis_5">
    <g id="ytick_19">
     <g id="line2d_14">
      <path d="M 358.9824 197.793103 
L 604.8 197.793103 
" clip-path="url(#p30f72c6c6c)" style="fill: none; stroke: #b0b0b0; stroke-width: 0.8; stroke-linecap: square"/>
     </g>
     <g id="line2d_15">
      <defs>
       <path id="m0366d0cb3e" d="M 0 0 
L -3.5 0 
" style="stroke: #000000; stroke-width: 0.8"/>
      </defs>
      <g>
       <use xlink:href="#m0366d0cb3e" x="358.9824" y="197.793103" style="stroke: #000000; stroke-width: 0.8"/>
      </g>
     </g>
     <g id="text_12">
      <!-- 0 -->
      <g transform="translate(345.6199 201.592322) scale(0.1 -0.1)">
       <use xlink:href="#DejaVuSans-30"/>
      </g>
     </g>
    </g>
    <g id="ytick_20">
     <g id="line2d_16">
      <path d="M 358.9824 170.564136 
L 604.8 170.564136 
" clip-path="url(#p30f72c6c6c)" style="fill: none; stroke: #b0b0b0; stroke-width: 0.8; stroke-linecap: square"/>
     </g>
     <g id="line2d_17">
      <g>
       <use xlink:href="#m0366d0cb3e" x="358.9824" y="170.564136" style="stroke: #000000; stroke-width: 0.8"/>
      </g>
     </g>
     <g id="text_13">
      <!-- 2000 -->
      <g transform="translate(326.5324 174.363355) scale(0.1 -0.1)">
       <defs>
        <path id="DejaVuSans-32" d="M 1228 531 
L 3431 531 
L 3431 0 
L 469 0 
L 469 531 
Q 828 903 1448 1529 
Q 2069 2156 2228 2338 
Q 2531 2678 2651 2914 
Q 2772 3150 2772 3378 
Q 2772 3750 2511 3984 
Q 2250 4219 1831 4219 
Q 1534 4219 1204 4116 
Q 875 4013 500 3803 
L 500 4441 
Q 881 4594 1212 4672 
Q 1544 4750 1819 4750 
Q 2544 4750 2975 4387 
Q 3406 4025 3406 3419 
Q 3406 3131 3298 2873 
Q 3191 2616 2906 2266 
Q 2828 2175 2409 1742 
Q 1991 1309 1228 531 
z
" transform="scale(0.015625)"/>
       </defs>
       <use xlink:href="#DejaVuSans-32"/>
       <use xlink:href="#DejaVuSans-30" x="63.623047"/>
       <use xlink:href="#DejaVuSans-30" x="127.246094"/>
       <use xlink:href="#DejaVuSans-30" x="190.869141"/>
      </g>
     </g>
    </g>
    <g id="ytick_21">
     <g id="line2d_18">
      <path d="M 358.9824 143.335169 
L 604.8 143.335169 
" clip-path="url(#p30f72c6c6c)" style="fill: none; stroke: #b0b0b0; stroke-width: 0.8; stroke-linecap: square"/>
     </g>
     <g id="line2d_19">
      <g>
       <use xlink:href="#m0366d0cb3e" x="358.9824" y="143.335169" style="stroke: #000000; stroke-width: 0.8"/>
      </g>
     </g>
     <g id="text_14">
      <!-- 4000 -->
      <g transform="translate(326.5324 147.134388) scale(0.1 -0.1)">
       <defs>
        <path id="DejaVuSans-34" d="M 2419 4116 
L 825 1625 
L 2419 1625 
L 2419 4116 
z
M 2253 4666 
L 3047 4666 
L 3047 1625 
L 3713 1625 
L 3713 1100 
L 3047 1100 
L 3047 0 
L 2419 0 
L 2419 1100 
L 313 1100 
L 313 1709 
L 2253 4666 
z
" transform="scale(0.015625)"/>
       </defs>
       <use xlink:href="#DejaVuSans-34"/>
       <use xlink:href="#DejaVuSans-30" x="63.623047"/>
       <use xlink:href="#DejaVuSans-30" x="127.246094"/>
       <use xlink:href="#DejaVuSans-30" x="190.869141"/>
      </g>
     </g>
    </g>
    <g id="ytick_22">
     <g id="line2d_20">
      <path d="M 358.9824 116.106201 
L 604.8 116.106201 
" clip-path="url(#p30f72c6c6c)" style="fill: none; stroke: #b0b0b0; stroke-width: 0.8; stroke-linecap: square"/>
     </g>
     <g id="line2d_21">
      <g>
       <use xlink:href="#m0366d0cb3e" x="358.9824" y="116.106201" style="stroke: #000000; stroke-width: 0.8"/>
      </g>
     </g>
     <g id="text_15">
      <!-- 6000 -->
      <g transform="translate(326.5324 119.90542) scale(0.1 -0.1)">
       <defs>
        <path id="DejaVuSans-36" d="M 2113 2584 
Q 1688 2584 1439 2293 
Q 1191 2003 1191 1497 
Q 1191 994 1439 701 
Q 1688 409 2113 409 
Q 2538 409 2786 701 
Q 3034 994 3034 1497 
Q 3034 2003 2786 2293 
Q 2538 2584 2113 2584 
z
M 3366 4563 
L 3366 3988 
Q 3128 4100 2886 4159 
Q 2644 4219 2406 4219 
Q 1781 4219 1451 3797 
Q 1122 3375 1075 2522 
Q 1259 2794 1537 2939 
Q 1816 3084 2150 3084 
Q 2853 3084 3261 2657 
Q 3669 2231 3669 1497 
Q 3669 778 3244 343 
Q 2819 -91 2113 -91 
Q 1303 -91 875 529 
Q 447 1150 447 2328 
Q 447 3434 972 4092 
Q 1497 4750 2381 4750 
Q 2619 4750 2861 4703 
Q 3103 4656 3366 4563 
z
" transform="scale(0.015625)"/>
       </defs>
       <use xlink:href="#DejaVuSans-36"/>
       <use xlink:href="#DejaVuSans-30" x="63.623047"/>
       <use xlink:href="#DejaVuSans-30" x="127.246094"/>
       <use xlink:href="#DejaVuSans-30" x="190.869141"/>
      </g>
     </g>
    </g>
    <g id="ytick_23">
     <g id="line2d_22">
      <path d="M 358.9824 88.877234 
L 604.8 88.877234 
" clip-path="url(#p30f72c6c6c)" style="fill: none; stroke: #b0b0b0; stroke-width: 0.8; stroke-linecap: square"/>
     </g>
     <g id="line2d_23">
      <g>
       <use xlink:href="#m0366d0cb3e" x="358.9824" y="88.877234" style="stroke: #000000; stroke-width: 0.8"/>
      </g>
     </g>
     <g id="text_16">
      <!-- 8000 -->
      <g transform="translate(326.5324 92.676453) scale(0.1 -0.1)">
       <defs>
        <path id="DejaVuSans-38" d="M 2034 2216 
Q 1584 2216 1326 1975 
Q 1069 1734 1069 1313 
Q 1069 891 1326 650 
Q 1584 409 2034 409 
Q 2484 409 2743 651 
Q 3003 894 3003 1313 
Q 3003 1734 2745 1975 
Q 2488 2216 2034 2216 
z
M 1403 2484 
Q 997 2584 770 2862 
Q 544 3141 544 3541 
Q 544 4100 942 4425 
Q 1341 4750 2034 4750 
Q 2731 4750 3128 4425 
Q 3525 4100 3525 3541 
Q 3525 3141 3298 2862 
Q 3072 2584 2669 2484 
Q 3125 2378 3379 2068 
Q 3634 1759 3634 1313 
Q 3634 634 3220 271 
Q 2806 -91 2034 -91 
Q 1263 -91 848 271 
Q 434 634 434 1313 
Q 434 1759 690 2068 
Q 947 2378 1403 2484 
z
M 1172 3481 
Q 1172 3119 1398 2916 
Q 1625 2713 2034 2713 
Q 2441 2713 2670 2916 
Q 2900 3119 2900 3481 
Q 2900 3844 2670 4047 
Q 2441 4250 2034 4250 
Q 1625 4250 1398 4047 
Q 1172 3844 1172 3481 
z
" transform="scale(0.015625)"/>
       </defs>
       <use xlink:href="#DejaVuSans-38"/>
       <use xlink:href="#DejaVuSans-30" x="63.623047"/>
       <use xlink:href="#DejaVuSans-30" x="127.246094"/>
       <use xlink:href="#DejaVuSans-30" x="190.869141"/>
      </g>
     </g>
    </g>
    <g id="ytick_24">
     <g id="line2d_24">
      <path d="M 358.9824 61.648267 
L 604.8 61.648267 
" clip-path="url(#p30f72c6c6c)" style="fill: none; stroke: #b0b0b0; stroke-width: 0.8; stroke-linecap: square"/>
     </g>
     <g id="line2d_25">
      <g>
       <use xlink:href="#m0366d0cb3e" x="358.9824" y="61.648267" style="stroke: #000000; stroke-width: 0.8"/>
      </g>
     </g>
     <g id="text_17">
      <!-- 10000 -->
      <g transform="translate(320.1699 65.447485) scale(0.1 -0.1)">
       <use xlink:href="#DejaVuSans-31"/>
       <use xlink:href="#DejaVuSans-30" x="63.623047"/>
       <use xlink:href="#DejaVuSans-30" x="127.246094"/>
       <use xlink:href="#DejaVuSans-30" x="190.869141"/>
       <use xlink:href="#DejaVuSans-30" x="254.492188"/>
      </g>
     </g>
    </g>
    <g id="text_18">
     <!-- Intersection size -->
     <g transform="translate(314.090212 168.723895) rotate(-90) scale(0.1 -0.1)">
      <defs>
       <path id="DejaVuSans-49" d="M 628 4666 
L 1259 4666 
L 1259 0 
L 628 0 
L 628 4666 
z
" transform="scale(0.015625)"/>
       <path id="DejaVuSans-7a" d="M 353 3500 
L 3084 3500 
L 3084 2975 
L 922 459 
L 3084 459 
L 3084 0 
L 275 0 
L 275 525 
L 2438 3041 
L 353 3041 
L 353 3500 
z
" transform="scale(0.015625)"/>
      </defs>
      <use xlink:href="#DejaVuSans-49"/>
      <use xlink:href="#DejaVuSans-6e" x="29.492188"/>
      <use xlink:href="#DejaVuSans-74" x="92.871094"/>
      <use xlink:href="#DejaVuSans-65" x="132.080078"/>
      <use xlink:href="#DejaVuSans-72" x="193.603516"/>
      <use xlink:href="#DejaVuSans-73" x="234.716797"/>
      <use xlink:href="#DejaVuSans-65" x="286.816406"/>
      <use xlink:href="#DejaVuSans-63" x="348.339844"/>
      <use xlink:href="#DejaVuSans-74" x="403.320312"/>
      <use xlink:href="#DejaVuSans-69" x="442.529297"/>
      <use xlink:href="#DejaVuSans-6f" x="470.3125"/>
      <use xlink:href="#DejaVuSans-6e" x="531.494141"/>
      <use xlink:href="#DejaVuSans-20" x="594.873047"/>
      <use xlink:href="#DejaVuSans-73" x="626.660156"/>
      <use xlink:href="#DejaVuSans-69" x="678.759766"/>
      <use xlink:href="#DejaVuSans-7a" x="706.542969"/>
      <use xlink:href="#DejaVuSans-65" x="759.033203"/>
     </g>
    </g>
   </g>
   <g id="patch_18">
    <path d="M 358.9824 197.793103 
L 358.9824 57.6 
" style="fill: none; stroke: #000000; stroke-width: 0.8; stroke-linejoin: miter; stroke-linecap: square"/>
   </g>
   <g id="patch_19">
    <path d="M 365.12784 197.793103 
L 377.41872 197.793103 
L 377.41872 64.275862 
L 365.12784 64.275862 
z
" clip-path="url(#p30f72c6c6c)" style="stroke: #000000; stroke-linejoin: miter"/>
   </g>
   <g id="patch_20">
    <path d="M 389.7096 197.793103 
L 402.00048 197.793103 
L 402.00048 197.62973 
L 389.7096 197.62973 
z
" clip-path="url(#p30f72c6c6c)" style="stroke: #000000; stroke-linejoin: miter"/>
   </g>
   <g id="patch_21">
    <path d="M 414.29136 197.793103 
L 426.58224 197.793103 
L 426.58224 196.336354 
L 414.29136 196.336354 
z
" clip-path="url(#p30f72c6c6c)" style="stroke: #000000; stroke-linejoin: miter"/>
   </g>
   <g id="patch_22">
    <path d="M 438.87312 197.793103 
L 451.164 197.793103 
L 451.164 72.349251 
L 438.87312 72.349251 
z
" clip-path="url(#p30f72c6c6c)" style="stroke: #000000; stroke-linejoin: miter"/>
   </g>
   <g id="patch_23">
    <path d="M 463.45488 197.793103 
L 475.74576 197.793103 
L 475.74576 197.62973 
L 463.45488 197.62973 
z
" clip-path="url(#p30f72c6c6c)" style="stroke: #000000; stroke-linejoin: miter"/>
   </g>
   <g id="patch_24">
    <path d="M 488.03664 197.793103 
L 500.32752 197.793103 
L 500.32752 197.602501 
L 488.03664 197.602501 
z
" clip-path="url(#p30f72c6c6c)" style="stroke: #000000; stroke-linejoin: miter"/>
   </g>
   <g id="patch_25">
    <path d="M 512.6184 197.793103 
L 524.90928 197.793103 
L 524.90928 197.262139 
L 512.6184 197.262139 
z
" clip-path="url(#p30f72c6c6c)" style="stroke: #000000; stroke-linejoin: miter"/>
   </g>
   <g id="patch_26">
    <path d="M 537.20016 197.793103 
L 549.49104 197.793103 
L 549.49104 197.616115 
L 537.20016 197.616115 
z
" clip-path="url(#p30f72c6c6c)" style="stroke: #000000; stroke-linejoin: miter"/>
   </g>
   <g id="patch_27">
    <path d="M 561.78192 197.793103 
L 574.0728 197.793103 
L 574.0728 197.670573 
L 561.78192 197.670573 
z
" clip-path="url(#p30f72c6c6c)" style="stroke: #000000; stroke-linejoin: miter"/>
   </g>
   <g id="patch_28">
    <path d="M 586.36368 197.793103 
L 598.65456 197.793103 
L 598.65456 197.493585 
L 586.36368 197.493585 
z
" clip-path="url(#p30f72c6c6c)" style="stroke: #000000; stroke-linejoin: miter"/>
   </g>
  </g>
 </g>
 <defs>
  <clipPath id="pb4455a5981">
   <rect x="84" y="210.537931" width="520.8" height="216.662069"/>
  </clipPath>
  <clipPath id="p7623a5f508">
   <rect x="358.9824" y="210.537931" width="245.8176" height="216.662069"/>
  </clipPath>
  <clipPath id="pc319ce08e8">
   <rect x="84" y="210.537931" width="45.8304" height="216.662069"/>
  </clipPath>
  <clipPath id="p30f72c6c6c">
   <rect x="358.9824" y="57.6" width="245.8176" height="140.193103"/>
  </clipPath>
 </defs>
</svg>
